# xmcd
# 
# Track frame offsets:
#     183
#     18483
#     40733
#     64883
#     84535
#     109058
#     138758
#     159733
#     194133
#     228283
#     258183
#     278695
# 
# Disc length: 4617
# 
# Revision: 2
# Processed by: cddbd v1.5.2PL0 Copyright (c) Steve Scherf et al.
# Submitted via: fre:ac v1.0.31
# 
DISCID=a012070c
DTITLE=John Martyn - BBC Radio 1 Live In Concert
DYEAR=1986
DGENRE=Folk/Rock
TTITLE0=Head And Heart
TTITLE1=Spencer The Rover
TTITLE2=Mad Dog Days
TTITLE3=The Dealer
TTITLE4=Outside In
TTITLE5=Big Muff
TTITLE6=Serendipity
TTITLE7=Looking On
TTITLE8=John Wayne
TTITLE9=Johnny Too Bad
TTITLE10=Over The Rainbow
TTITLE11=Outside In (1997 ext. version)
EXTD=
EXTT0=
EXTT1=
EXTT2=
EXTT3=
EXTT4=
EXTT5=
EXTT6=
EXTT7=
EXTT8=
EXTT9=
EXTT10=
EXTT11=
PLAYORDER=
